<svg id="visual" viewBox="0 0 900 900" width="900" height="900" xmlns="http://www.w3.org/2000/svg" xmlns:xlink="http://www.w3.org/1999/xlink" version="1.1"><g stroke-width="1" stroke-linejoin="bevel"><path d="M395.7 503.3L507.3 638.9L508.3 515.3Z" fill="#56a0da" stroke="#56a0da"></path><path d="M395.7 503.3L370.7 628.9L507.3 638.9Z" fill="#4c9bdd" stroke="#4c9bdd"></path><path d="M395.7 503.3L264.1 501.3L370.7 628.9Z" fill="#4395df" stroke="#4395df"></path><path d="M507.3 638.9L639.9 510.3L508.3 515.3Z" fill="#4169e1" stroke="#4169e1"></path><path d="M526.3 374.7L382.7 375.7L395.7 503.3Z" fill="#3284e3" stroke="#3284e3"></path><path d="M383.7 782.4L499.3 777.4L507.3 638.9Z" fill="#327ee3" stroke="#327ee3"></path><path d="M507.3 638.9L648.9 654.9L639.9 510.3Z" fill="#358ae2" stroke="#358ae2"></path><path d="M526.3 374.7L395.7 503.3L508.3 515.3Z" fill="#56a0da" stroke="#56a0da"></path><path d="M395.7 503.3L382.7 375.7L264.1 501.3Z" fill="#3477e3" stroke="#3477e3"></path><path d="M264.1 501.3L244.1 642.9L370.7 628.9Z" fill="#4169e1" stroke="#4169e1"></path><path d="M370.7 628.9L383.7 782.4L507.3 638.9Z" fill="#3a70e2" stroke="#3a70e2"></path><path d="M270.1 778.4L383.7 782.4L370.7 628.9Z" fill="#327ee3" stroke="#327ee3"></path><path d="M639.9 510.3L526.3 374.7L508.3 515.3Z" fill="#4395df" stroke="#4395df"></path><path d="M632.9 771.4L648.9 654.9L507.3 638.9Z" fill="#61a5d8" stroke="#61a5d8"></path><path d="M244.1 642.9L270.1 778.4L370.7 628.9Z" fill="#358ae2" stroke="#358ae2"></path><path d="M499.3 777.4L632.9 771.4L507.3 638.9Z" fill="#3477e3" stroke="#3477e3"></path><path d="M382.7 375.7L249.1 388.7L264.1 501.3Z" fill="#56a0da" stroke="#56a0da"></path><path d="M264.1 501.3L136.6 502.3L244.1 642.9Z" fill="#327ee3" stroke="#327ee3"></path><path d="M782.4 398.7L652.9 372.7L639.9 510.3Z" fill="#327ee3" stroke="#327ee3"></path><path d="M639.9 510.3L652.9 372.7L526.3 374.7Z" fill="#3284e3" stroke="#3284e3"></path><path d="M526.3 374.7L394.7 255.1L382.7 375.7Z" fill="#3b90e1" stroke="#3b90e1"></path><path d="M249.1 388.7L136.6 502.3L264.1 501.3Z" fill="#4c9bdd" stroke="#4c9bdd"></path><path d="M244.1 642.9L129.6 771.4L270.1 778.4Z" fill="#4169e1" stroke="#4169e1"></path><path d="M522.3 244.1L394.7 255.1L526.3 374.7Z" fill="#327ee3" stroke="#327ee3"></path><path d="M382.7 375.7L247.1 246.1L249.1 388.7Z" fill="#4c9bdd" stroke="#4c9bdd"></path><path d="M270.1 778.4L395.7 900L383.7 782.4Z" fill="#358ae2" stroke="#358ae2"></path><path d="M383.7 782.4L395.7 900L499.3 777.4Z" fill="#3b90e1" stroke="#3b90e1"></path><path d="M499.3 777.4L503.3 900L632.9 771.4Z" fill="#4395df" stroke="#4395df"></path><path d="M395.7 900L503.3 900L499.3 777.4Z" fill="#61a5d8" stroke="#61a5d8"></path><path d="M774.4 768.4L771.4 641.9L648.9 654.9Z" fill="#3b90e1" stroke="#3b90e1"></path><path d="M648.9 654.9L771.4 641.9L639.9 510.3Z" fill="#3a70e2" stroke="#3a70e2"></path><path d="M774.4 768.4L648.9 654.9L632.9 771.4Z" fill="#3a70e2" stroke="#3a70e2"></path><path d="M136.6 502.3L117.6 643.9L244.1 642.9Z" fill="#4169e1" stroke="#4169e1"></path><path d="M270.1 778.4L249.1 900L395.7 900Z" fill="#327ee3" stroke="#327ee3"></path><path d="M771.4 641.9L775.4 511.3L639.9 510.3Z" fill="#3b90e1" stroke="#3b90e1"></path><path d="M640.9 245.1L522.3 244.1L526.3 374.7Z" fill="#4395df" stroke="#4395df"></path><path d="M249.1 388.7L139.6 396.7L136.6 502.3Z" fill="#4395df" stroke="#4395df"></path><path d="M136.6 502.3L0 514.3L117.6 643.9Z" fill="#4169e1" stroke="#4169e1"></path><path d="M247.1 246.1L139.6 396.7L249.1 388.7Z" fill="#4169e1" stroke="#4169e1"></path><path d="M117.6 643.9L129.6 771.4L244.1 642.9Z" fill="#56a0da" stroke="#56a0da"></path><path d="M129.6 771.4L249.1 900L270.1 778.4Z" fill="#327ee3" stroke="#327ee3"></path><path d="M503.3 900L644.9 900L632.9 771.4Z" fill="#61a5d8" stroke="#61a5d8"></path><path d="M644.9 900L774.4 768.4L632.9 771.4Z" fill="#4c9bdd" stroke="#4c9bdd"></path><path d="M771.4 641.9L900 648.9L775.4 511.3Z" fill="#3284e3" stroke="#3284e3"></path><path d="M775.4 511.3L782.4 398.7L639.9 510.3Z" fill="#56a0da" stroke="#56a0da"></path><path d="M652.9 372.7L640.9 245.1L526.3 374.7Z" fill="#3477e3" stroke="#3477e3"></path><path d="M900 503.3L782.4 398.7L775.4 511.3Z" fill="#3284e3" stroke="#3284e3"></path><path d="M370.7 119.6L247.1 246.1L394.7 255.1Z" fill="#4169e1" stroke="#4169e1"></path><path d="M394.7 255.1L247.1 246.1L382.7 375.7Z" fill="#3477e3" stroke="#3477e3"></path><path d="M757.4 243.1L640.9 245.1L652.9 372.7Z" fill="#56a0da" stroke="#56a0da"></path><path d="M129.6 771.4L136.6 900L249.1 900Z" fill="#358ae2" stroke="#358ae2"></path><path d="M0 780.4L136.6 900L129.6 771.4Z" fill="#327ee3" stroke="#327ee3"></path><path d="M0 396.7L136.6 502.3L139.6 396.7Z" fill="#3284e3" stroke="#3284e3"></path><path d="M0 396.7L0 514.3L136.6 502.3Z" fill="#4169e1" stroke="#4169e1"></path><path d="M117.6 643.9L0 650.9L129.6 771.4Z" fill="#3b90e1" stroke="#3b90e1"></path><path d="M0 514.3L0 650.9L117.6 643.9Z" fill="#327ee3" stroke="#327ee3"></path><path d="M782.4 398.7L757.4 243.1L652.9 372.7Z" fill="#4169e1" stroke="#4169e1"></path><path d="M521.3 114.6L394.7 255.1L522.3 244.1Z" fill="#3a70e2" stroke="#3a70e2"></path><path d="M113.6 137.6L127.6 243.1L247.1 246.1Z" fill="#56a0da" stroke="#56a0da"></path><path d="M247.1 246.1L127.6 243.1L139.6 396.7Z" fill="#3a70e2" stroke="#3a70e2"></path><path d="M370.7 119.6L394.7 255.1L521.3 114.6Z" fill="#3a70e2" stroke="#3a70e2"></path><path d="M900 780.4L900 648.9L774.4 768.4Z" fill="#4395df" stroke="#4395df"></path><path d="M774.4 768.4L900 648.9L771.4 641.9Z" fill="#3b90e1" stroke="#3b90e1"></path><path d="M782.4 398.7L900 263.1L757.4 243.1Z" fill="#3477e3" stroke="#3477e3"></path><path d="M900 648.9L900 503.3L775.4 511.3Z" fill="#4c9bdd" stroke="#4c9bdd"></path><path d="M521.3 114.6L522.3 244.1L635.9 120.6Z" fill="#3477e3" stroke="#3477e3"></path><path d="M644.9 900L777.4 900L774.4 768.4Z" fill="#3a70e2" stroke="#3a70e2"></path><path d="M635.9 120.6L522.3 244.1L640.9 245.1Z" fill="#358ae2" stroke="#358ae2"></path><path d="M0 258.1L0 396.7L139.6 396.7Z" fill="#358ae2" stroke="#358ae2"></path><path d="M0 650.9L0 780.4L129.6 771.4Z" fill="#4395df" stroke="#4395df"></path><path d="M900 503.3L900 392.7L782.4 398.7Z" fill="#3a70e2" stroke="#3a70e2"></path><path d="M370.7 119.6L264.1 116.6L247.1 246.1Z" fill="#3a70e2" stroke="#3a70e2"></path><path d="M379.7 0L264.1 116.6L370.7 119.6Z" fill="#358ae2" stroke="#358ae2"></path><path d="M757.4 243.1L635.9 120.6L640.9 245.1Z" fill="#61a5d8" stroke="#61a5d8"></path><path d="M777.4 900L900 780.4L774.4 768.4Z" fill="#4169e1" stroke="#4169e1"></path><path d="M127.6 243.1L0 258.1L139.6 396.7Z" fill="#4169e1" stroke="#4169e1"></path><path d="M113.6 137.6L0 258.1L127.6 243.1Z" fill="#3284e3" stroke="#3284e3"></path><path d="M264.1 116.6L113.6 137.6L247.1 246.1Z" fill="#327ee3" stroke="#327ee3"></path><path d="M0 780.4L0 900L136.6 900Z" fill="#4c9bdd" stroke="#4c9bdd"></path><path d="M900 137.6L773.4 133.6L757.4 243.1Z" fill="#61a5d8" stroke="#61a5d8"></path><path d="M757.4 243.1L773.4 133.6L635.9 120.6Z" fill="#4c9bdd" stroke="#4c9bdd"></path><path d="M900 392.7L900 263.1L782.4 398.7Z" fill="#56a0da" stroke="#56a0da"></path><path d="M777.4 900L900 900L900 780.4Z" fill="#327ee3" stroke="#327ee3"></path><path d="M653.9 0L521.3 114.6L635.9 120.6Z" fill="#327ee3" stroke="#327ee3"></path><path d="M653.9 0L509.3 0L521.3 114.6Z" fill="#4c9bdd" stroke="#4c9bdd"></path><path d="M521.3 114.6L379.7 0L370.7 119.6Z" fill="#3284e3" stroke="#3284e3"></path><path d="M264.1 116.6L138.6 0L113.6 137.6Z" fill="#4395df" stroke="#4395df"></path><path d="M509.3 0L379.7 0L521.3 114.6Z" fill="#3b90e1" stroke="#3b90e1"></path><path d="M379.7 0L249.1 0L264.1 116.6Z" fill="#4c9bdd" stroke="#4c9bdd"></path><path d="M773.4 133.6L653.9 0L635.9 120.6Z" fill="#3284e3" stroke="#3284e3"></path><path d="M784.4 0L653.9 0L773.4 133.6Z" fill="#3284e3" stroke="#3284e3"></path><path d="M900 263.1L900 137.6L757.4 243.1Z" fill="#3284e3" stroke="#3284e3"></path><path d="M138.6 0L0 113.6L113.6 137.6Z" fill="#4169e1" stroke="#4169e1"></path><path d="M113.6 137.6L0 113.6L0 258.1Z" fill="#61a5d8" stroke="#61a5d8"></path><path d="M249.1 0L138.6 0L264.1 116.6Z" fill="#3284e3" stroke="#3284e3"></path><path d="M900 137.6L784.4 0L773.4 133.6Z" fill="#4c9bdd" stroke="#4c9bdd"></path><path d="M138.6 0L0 0L0 113.6Z" fill="#4c9bdd" stroke="#4c9bdd"></path><path d="M900 137.6L900 0L784.4 0Z" fill="#4395df" stroke="#4395df"></path></g></svg>