<svg id="visual" viewBox="0 0 900 900" width="900" height="900" xmlns="http://www.w3.org/2000/svg" xmlns:xlink="http://www.w3.org/1999/xlink" version="1.1"><g stroke-width="1" stroke-linejoin="bevel"><path d="M507.3 506.3L386.7 511.3L377.7 633.9Z" fill="#327ee3" stroke="#327ee3"></path><path d="M377.7 633.9L523.3 640.9L507.3 506.3Z" fill="#3b90e1" stroke="#3b90e1"></path><path d="M386.7 511.3L263.1 523.3L377.7 633.9Z" fill="#3477e3" stroke="#3477e3"></path><path d="M377.7 633.9L521.3 763.4L523.3 640.9Z" fill="#4395df" stroke="#4395df"></path><path d="M645.9 503.3L516.3 380.7L507.3 506.3Z" fill="#3477e3" stroke="#3477e3"></path><path d="M507.3 506.3L516.3 380.7L386.7 511.3Z" fill="#3477e3" stroke="#3477e3"></path><path d="M386.7 511.3L245.1 393.7L263.1 523.3Z" fill="#3477e3" stroke="#3477e3"></path><path d="M654.9 630.9L645.9 503.3L523.3 640.9Z" fill="#3b90e1" stroke="#3b90e1"></path><path d="M523.3 640.9L645.9 503.3L507.3 506.3Z" fill="#3a70e2" stroke="#3a70e2"></path><path d="M649.9 772.4L654.9 630.9L523.3 640.9Z" fill="#61a5d8" stroke="#61a5d8"></path><path d="M242.1 655.9L373.7 776.4L377.7 633.9Z" fill="#327ee3" stroke="#327ee3"></path><path d="M377.7 633.9L373.7 776.4L521.3 763.4Z" fill="#3b90e1" stroke="#3b90e1"></path><path d="M516.3 380.7L372.7 374.7L386.7 511.3Z" fill="#327ee3" stroke="#327ee3"></path><path d="M263.1 523.3L242.1 655.9L377.7 633.9Z" fill="#4169e1" stroke="#4169e1"></path><path d="M372.7 374.7L245.1 393.7L386.7 511.3Z" fill="#327ee3" stroke="#327ee3"></path><path d="M263.1 523.3L139.6 639.9L242.1 655.9Z" fill="#4169e1" stroke="#4169e1"></path><path d="M521.3 763.4L649.9 772.4L523.3 640.9Z" fill="#3b90e1" stroke="#3b90e1"></path><path d="M639.9 900L649.9 772.4L521.3 763.4Z" fill="#3284e3" stroke="#3284e3"></path><path d="M763.4 378.7L656.9 386.7L645.9 503.3Z" fill="#61a5d8" stroke="#61a5d8"></path><path d="M645.9 503.3L656.9 386.7L516.3 380.7Z" fill="#3a70e2" stroke="#3a70e2"></path><path d="M242.1 655.9L243.1 778.4L373.7 776.4Z" fill="#3a70e2" stroke="#3a70e2"></path><path d="M373.7 776.4L518.3 900L521.3 763.4Z" fill="#3a70e2" stroke="#3a70e2"></path><path d="M123.6 523.3L139.6 639.9L263.1 523.3Z" fill="#4c9bdd" stroke="#4c9bdd"></path><path d="M242.1 655.9L113.6 773.4L243.1 778.4Z" fill="#3b90e1" stroke="#3b90e1"></path><path d="M761.4 759.4L764.4 637.9L654.9 630.9Z" fill="#4395df" stroke="#4395df"></path><path d="M654.9 630.9L773.4 524.3L645.9 503.3Z" fill="#61a5d8" stroke="#61a5d8"></path><path d="M628.9 262.1L525.3 265.1L516.3 380.7Z" fill="#3284e3" stroke="#3284e3"></path><path d="M516.3 380.7L525.3 265.1L372.7 374.7Z" fill="#4c9bdd" stroke="#4c9bdd"></path><path d="M372.7 374.7L250.1 250.1L245.1 393.7Z" fill="#3a70e2" stroke="#3a70e2"></path><path d="M764.4 637.9L773.4 524.3L654.9 630.9Z" fill="#4169e1" stroke="#4169e1"></path><path d="M380.7 900L518.3 900L373.7 776.4Z" fill="#3477e3" stroke="#3477e3"></path><path d="M250.1 900L380.7 900L373.7 776.4Z" fill="#4c9bdd" stroke="#4c9bdd"></path><path d="M245.1 393.7L123.6 523.3L263.1 523.3Z" fill="#4395df" stroke="#4395df"></path><path d="M525.3 265.1L379.7 247.1L372.7 374.7Z" fill="#61a5d8" stroke="#61a5d8"></path><path d="M245.1 393.7L118.6 392.7L123.6 523.3Z" fill="#4169e1" stroke="#4169e1"></path><path d="M649.9 772.4L761.4 759.4L654.9 630.9Z" fill="#61a5d8" stroke="#61a5d8"></path><path d="M900 640.9L900 523.3L773.4 524.3Z" fill="#3477e3" stroke="#3477e3"></path><path d="M760.4 900L761.4 759.4L649.9 772.4Z" fill="#4395df" stroke="#4395df"></path><path d="M656.9 386.7L628.9 262.1L516.3 380.7Z" fill="#3284e3" stroke="#3284e3"></path><path d="M507.3 123.6L389.7 140.6L379.7 247.1Z" fill="#61a5d8" stroke="#61a5d8"></path><path d="M770.4 251.1L628.9 262.1L656.9 386.7Z" fill="#3b90e1" stroke="#3b90e1"></path><path d="M773.4 524.3L763.4 378.7L645.9 503.3Z" fill="#358ae2" stroke="#358ae2"></path><path d="M518.3 900L639.9 900L521.3 763.4Z" fill="#4169e1" stroke="#4169e1"></path><path d="M243.1 778.4L250.1 900L373.7 776.4Z" fill="#3a70e2" stroke="#3a70e2"></path><path d="M114.6 900L250.1 900L243.1 778.4Z" fill="#3a70e2" stroke="#3a70e2"></path><path d="M121.6 265.1L118.6 392.7L245.1 393.7Z" fill="#4c9bdd" stroke="#4c9bdd"></path><path d="M379.7 247.1L250.1 250.1L372.7 374.7Z" fill="#4c9bdd" stroke="#4c9bdd"></path><path d="M0 645.9L113.6 773.4L139.6 639.9Z" fill="#56a0da" stroke="#56a0da"></path><path d="M139.6 639.9L113.6 773.4L242.1 655.9Z" fill="#4169e1" stroke="#4169e1"></path><path d="M0 645.9L139.6 639.9L123.6 523.3Z" fill="#358ae2" stroke="#358ae2"></path><path d="M507.3 123.6L379.7 247.1L525.3 265.1Z" fill="#3284e3" stroke="#3284e3"></path><path d="M379.7 247.1L389.7 140.6L250.1 250.1Z" fill="#358ae2" stroke="#358ae2"></path><path d="M639.9 900L760.4 900L649.9 772.4Z" fill="#358ae2" stroke="#358ae2"></path><path d="M900 640.9L773.4 524.3L764.4 637.9Z" fill="#3b90e1" stroke="#3b90e1"></path><path d="M250.1 250.1L121.6 265.1L245.1 393.7Z" fill="#3a70e2" stroke="#3a70e2"></path><path d="M125.6 115.6L121.6 265.1L250.1 250.1Z" fill="#3477e3" stroke="#3477e3"></path><path d="M900 640.9L764.4 637.9L761.4 759.4Z" fill="#327ee3" stroke="#327ee3"></path><path d="M773.4 524.3L900 394.7L763.4 378.7Z" fill="#3477e3" stroke="#3477e3"></path><path d="M900 763.4L900 640.9L761.4 759.4Z" fill="#327ee3" stroke="#327ee3"></path><path d="M0 377.7L0 510.3L118.6 392.7Z" fill="#61a5d8" stroke="#61a5d8"></path><path d="M118.6 392.7L0 510.3L123.6 523.3Z" fill="#4395df" stroke="#4395df"></path><path d="M0 510.3L0 645.9L123.6 523.3Z" fill="#4169e1" stroke="#4169e1"></path><path d="M763.4 378.7L770.4 251.1L656.9 386.7Z" fill="#56a0da" stroke="#56a0da"></path><path d="M644.9 131.6L507.3 123.6L525.3 265.1Z" fill="#3477e3" stroke="#3477e3"></path><path d="M900 267.1L770.4 251.1L763.4 378.7Z" fill="#4169e1" stroke="#4169e1"></path><path d="M644.9 131.6L525.3 265.1L628.9 262.1Z" fill="#56a0da" stroke="#56a0da"></path><path d="M0 900L114.6 900L113.6 773.4Z" fill="#3a70e2" stroke="#3a70e2"></path><path d="M113.6 773.4L114.6 900L243.1 778.4Z" fill="#358ae2" stroke="#358ae2"></path><path d="M900 523.3L900 394.7L773.4 524.3Z" fill="#56a0da" stroke="#56a0da"></path><path d="M770.4 251.1L644.9 131.6L628.9 262.1Z" fill="#56a0da" stroke="#56a0da"></path><path d="M760.4 900L900 763.4L761.4 759.4Z" fill="#61a5d8" stroke="#61a5d8"></path><path d="M0 645.9L0 772.4L113.6 773.4Z" fill="#4395df" stroke="#4395df"></path><path d="M121.6 265.1L0 377.7L118.6 392.7Z" fill="#327ee3" stroke="#327ee3"></path><path d="M382.7 0L243.1 121.6L389.7 140.6Z" fill="#4395df" stroke="#4395df"></path><path d="M389.7 140.6L243.1 121.6L250.1 250.1Z" fill="#56a0da" stroke="#56a0da"></path><path d="M121.6 265.1L0 245.1L0 377.7Z" fill="#4395df" stroke="#4395df"></path><path d="M526.3 0L382.7 0L507.3 123.6Z" fill="#3477e3" stroke="#3477e3"></path><path d="M770.4 251.1L759.4 131.6L644.9 131.6Z" fill="#358ae2" stroke="#358ae2"></path><path d="M900 130.6L759.4 131.6L770.4 251.1Z" fill="#327ee3" stroke="#327ee3"></path><path d="M900 394.7L900 267.1L763.4 378.7Z" fill="#3477e3" stroke="#3477e3"></path><path d="M0 772.4L0 900L113.6 773.4Z" fill="#358ae2" stroke="#358ae2"></path><path d="M760.4 900L900 900L900 763.4Z" fill="#3284e3" stroke="#3284e3"></path><path d="M0 142.6L0 245.1L121.6 265.1Z" fill="#56a0da" stroke="#56a0da"></path><path d="M248.1 0L125.6 115.6L243.1 121.6Z" fill="#61a5d8" stroke="#61a5d8"></path><path d="M243.1 121.6L125.6 115.6L250.1 250.1Z" fill="#3284e3" stroke="#3284e3"></path><path d="M507.3 123.6L382.7 0L389.7 140.6Z" fill="#3a70e2" stroke="#3a70e2"></path><path d="M526.3 0L507.3 123.6L644.9 131.6Z" fill="#4395df" stroke="#4395df"></path><path d="M651.9 0L526.3 0L644.9 131.6Z" fill="#4169e1" stroke="#4169e1"></path><path d="M382.7 0L248.1 0L243.1 121.6Z" fill="#3477e3" stroke="#3477e3"></path><path d="M785.4 0L651.9 0L759.4 131.6Z" fill="#4c9bdd" stroke="#4c9bdd"></path><path d="M759.4 131.6L651.9 0L644.9 131.6Z" fill="#3284e3" stroke="#3284e3"></path><path d="M125.6 115.6L0 142.6L121.6 265.1Z" fill="#4395df" stroke="#4395df"></path><path d="M0 0L0 142.6L125.6 115.6Z" fill="#4169e1" stroke="#4169e1"></path><path d="M900 267.1L900 130.6L770.4 251.1Z" fill="#3b90e1" stroke="#3b90e1"></path><path d="M248.1 0L126.6 0L125.6 115.6Z" fill="#3284e3" stroke="#3284e3"></path><path d="M900 130.6L785.4 0L759.4 131.6Z" fill="#3477e3" stroke="#3477e3"></path><path d="M126.6 0L0 0L125.6 115.6Z" fill="#56a0da" stroke="#56a0da"></path><path d="M900 130.6L900 0L785.4 0Z" fill="#61a5d8" stroke="#61a5d8"></path></g></svg>