<svg id="visual" viewBox="0 0 900 900" width="900" height="900" xmlns="http://www.w3.org/2000/svg" xmlns:xlink="http://www.w3.org/1999/xlink" version="1.1"><g stroke-width="1" stroke-linejoin="bevel"><path d="M383.7 504.3L371.7 387.7L266.1 502.3Z" fill="#4c9bdd" stroke="#4c9bdd"></path><path d="M371.7 387.7L268.1 388.7L266.1 502.3Z" fill="#4395df" stroke="#4395df"></path><path d="M383.7 639.9L510.3 511.3L383.7 504.3Z" fill="#3b90e1" stroke="#3b90e1"></path><path d="M383.7 504.3L517.3 381.7L371.7 387.7Z" fill="#61a5d8" stroke="#61a5d8"></path><path d="M130.6 393.7L142.6 519.3L266.1 502.3Z" fill="#3a70e2" stroke="#3a70e2"></path><path d="M266.1 502.3L383.7 639.9L383.7 504.3Z" fill="#3a70e2" stroke="#3a70e2"></path><path d="M260.1 648.9L383.7 639.9L266.1 502.3Z" fill="#56a0da" stroke="#56a0da"></path><path d="M517.3 381.7L393.7 263.1L371.7 387.7Z" fill="#3477e3" stroke="#3477e3"></path><path d="M371.7 387.7L252.1 262.1L268.1 388.7Z" fill="#3b90e1" stroke="#3b90e1"></path><path d="M393.7 263.1L252.1 262.1L371.7 387.7Z" fill="#3a70e2" stroke="#3a70e2"></path><path d="M268.1 388.7L130.6 393.7L266.1 502.3Z" fill="#358ae2" stroke="#358ae2"></path><path d="M140.6 264.1L130.6 393.7L268.1 388.7Z" fill="#61a5d8" stroke="#61a5d8"></path><path d="M510.3 511.3L517.3 381.7L383.7 504.3Z" fill="#4395df" stroke="#4395df"></path><path d="M142.6 519.3L260.1 648.9L266.1 502.3Z" fill="#3b90e1" stroke="#3b90e1"></path><path d="M252.1 262.1L140.6 264.1L268.1 388.7Z" fill="#3477e3" stroke="#3477e3"></path><path d="M383.7 639.9L519.3 641.9L510.3 511.3Z" fill="#3477e3" stroke="#3477e3"></path><path d="M510.3 511.3L638.9 512.3L517.3 381.7Z" fill="#4c9bdd" stroke="#4c9bdd"></path><path d="M391.7 759.4L519.3 641.9L383.7 639.9Z" fill="#327ee3" stroke="#327ee3"></path><path d="M0 632.9L132.6 643.9L142.6 519.3Z" fill="#61a5d8" stroke="#61a5d8"></path><path d="M142.6 519.3L132.6 643.9L260.1 648.9Z" fill="#358ae2" stroke="#358ae2"></path><path d="M517.3 381.7L520.3 248.1L393.7 263.1Z" fill="#3a70e2" stroke="#3a70e2"></path><path d="M393.7 263.1L398.7 121.6L252.1 262.1Z" fill="#56a0da" stroke="#56a0da"></path><path d="M252.1 262.1L125.6 142.6L140.6 264.1Z" fill="#3b90e1" stroke="#3b90e1"></path><path d="M640.9 260.1L520.3 248.1L517.3 381.7Z" fill="#4c9bdd" stroke="#4c9bdd"></path><path d="M244.1 771.4L391.7 759.4L260.1 648.9Z" fill="#3284e3" stroke="#3284e3"></path><path d="M260.1 648.9L391.7 759.4L383.7 639.9Z" fill="#4c9bdd" stroke="#4c9bdd"></path><path d="M519.3 641.9L638.9 512.3L510.3 511.3Z" fill="#358ae2" stroke="#358ae2"></path><path d="M638.9 512.3L641.9 372.7L517.3 381.7Z" fill="#358ae2" stroke="#358ae2"></path><path d="M137.6 756.4L244.1 771.4L260.1 648.9Z" fill="#61a5d8" stroke="#61a5d8"></path><path d="M130.6 393.7L0 509.3L142.6 519.3Z" fill="#358ae2" stroke="#358ae2"></path><path d="M132.6 643.9L137.6 756.4L260.1 648.9Z" fill="#3a70e2" stroke="#3a70e2"></path><path d="M0 373.7L0 509.3L130.6 393.7Z" fill="#4395df" stroke="#4395df"></path><path d="M140.6 264.1L0 373.7L130.6 393.7Z" fill="#3284e3" stroke="#3284e3"></path><path d="M512.3 118.6L398.7 121.6L520.3 248.1Z" fill="#3a70e2" stroke="#3a70e2"></path><path d="M520.3 248.1L398.7 121.6L393.7 263.1Z" fill="#3a70e2" stroke="#3a70e2"></path><path d="M398.7 121.6L254.1 113.6L252.1 262.1Z" fill="#3b90e1" stroke="#3b90e1"></path><path d="M140.6 264.1L0 270.1L0 373.7Z" fill="#3b90e1" stroke="#3b90e1"></path><path d="M0 758.4L137.6 756.4L132.6 643.9Z" fill="#4169e1" stroke="#4169e1"></path><path d="M254.1 113.6L125.6 142.6L252.1 262.1Z" fill="#3a70e2" stroke="#3a70e2"></path><path d="M641.9 372.7L640.9 260.1L517.3 381.7Z" fill="#3a70e2" stroke="#3a70e2"></path><path d="M519.3 641.9L640.9 648.9L638.9 512.3Z" fill="#3b90e1" stroke="#3b90e1"></path><path d="M638.9 512.3L778.4 392.7L641.9 372.7Z" fill="#3a70e2" stroke="#3a70e2"></path><path d="M528.3 767.4L640.9 648.9L519.3 641.9Z" fill="#4395df" stroke="#4395df"></path><path d="M125.6 142.6L0 270.1L140.6 264.1Z" fill="#358ae2" stroke="#358ae2"></path><path d="M0 509.3L0 632.9L142.6 519.3Z" fill="#358ae2" stroke="#358ae2"></path><path d="M386.7 900L528.3 767.4L391.7 759.4Z" fill="#4c9bdd" stroke="#4c9bdd"></path><path d="M391.7 759.4L528.3 767.4L519.3 641.9Z" fill="#4c9bdd" stroke="#4c9bdd"></path><path d="M630.9 122.6L512.3 118.6L520.3 248.1Z" fill="#4395df" stroke="#4395df"></path><path d="M398.7 121.6L396.7 0L254.1 113.6Z" fill="#3284e3" stroke="#3284e3"></path><path d="M762.4 636.9L759.4 526.3L640.9 648.9Z" fill="#61a5d8" stroke="#61a5d8"></path><path d="M640.9 648.9L759.4 526.3L638.9 512.3Z" fill="#327ee3" stroke="#327ee3"></path><path d="M641.9 372.7L775.4 250.1L640.9 260.1Z" fill="#3b90e1" stroke="#3b90e1"></path><path d="M528.3 767.4L650.9 756.4L640.9 648.9Z" fill="#4c9bdd" stroke="#4c9bdd"></path><path d="M0 632.9L0 758.4L132.6 643.9Z" fill="#56a0da" stroke="#56a0da"></path><path d="M119.6 900L269.1 900L244.1 771.4Z" fill="#4395df" stroke="#4395df"></path><path d="M640.9 260.1L630.9 122.6L520.3 248.1Z" fill="#4c9bdd" stroke="#4c9bdd"></path><path d="M756.4 117.6L630.9 122.6L640.9 260.1Z" fill="#3284e3" stroke="#3284e3"></path><path d="M119.6 900L244.1 771.4L137.6 756.4Z" fill="#327ee3" stroke="#327ee3"></path><path d="M244.1 771.4L269.1 900L391.7 759.4Z" fill="#358ae2" stroke="#358ae2"></path><path d="M528.3 767.4L631.9 900L650.9 756.4Z" fill="#4395df" stroke="#4395df"></path><path d="M269.1 900L386.7 900L391.7 759.4Z" fill="#56a0da" stroke="#56a0da"></path><path d="M759.4 526.3L778.4 392.7L638.9 512.3Z" fill="#327ee3" stroke="#327ee3"></path><path d="M526.3 0L396.7 0L512.3 118.6Z" fill="#4395df" stroke="#4395df"></path><path d="M512.3 118.6L396.7 0L398.7 121.6Z" fill="#3284e3" stroke="#3284e3"></path><path d="M254.1 113.6L135.6 0L125.6 142.6Z" fill="#4169e1" stroke="#4169e1"></path><path d="M396.7 0L242.1 0L254.1 113.6Z" fill="#56a0da" stroke="#56a0da"></path><path d="M125.6 142.6L0 122.6L0 270.1Z" fill="#56a0da" stroke="#56a0da"></path><path d="M135.6 0L0 122.6L125.6 142.6Z" fill="#56a0da" stroke="#56a0da"></path><path d="M650.9 756.4L762.4 636.9L640.9 648.9Z" fill="#4395df" stroke="#4395df"></path><path d="M759.4 526.3L900 505.3L778.4 392.7Z" fill="#3b90e1" stroke="#3b90e1"></path><path d="M242.1 0L135.6 0L254.1 113.6Z" fill="#3b90e1" stroke="#3b90e1"></path><path d="M386.7 900L526.3 900L528.3 767.4Z" fill="#4395df" stroke="#4395df"></path><path d="M650.9 756.4L775.4 776.4L762.4 636.9Z" fill="#4395df" stroke="#4395df"></path><path d="M778.4 392.7L775.4 250.1L641.9 372.7Z" fill="#3284e3" stroke="#3284e3"></path><path d="M0 758.4L119.6 900L137.6 756.4Z" fill="#3b90e1" stroke="#3b90e1"></path><path d="M630.9 122.6L526.3 0L512.3 118.6Z" fill="#3284e3" stroke="#3284e3"></path><path d="M639.9 0L526.3 0L630.9 122.6Z" fill="#4c9bdd" stroke="#4c9bdd"></path><path d="M526.3 900L631.9 900L528.3 767.4Z" fill="#3477e3" stroke="#3477e3"></path><path d="M775.4 250.1L756.4 117.6L640.9 260.1Z" fill="#4c9bdd" stroke="#4c9bdd"></path><path d="M756.4 117.6L639.9 0L630.9 122.6Z" fill="#4395df" stroke="#4395df"></path><path d="M0 758.4L0 900L119.6 900Z" fill="#4c9bdd" stroke="#4c9bdd"></path><path d="M631.9 900L775.4 776.4L650.9 756.4Z" fill="#358ae2" stroke="#358ae2"></path><path d="M900 638.9L900 505.3L759.4 526.3Z" fill="#56a0da" stroke="#56a0da"></path><path d="M135.6 0L0 0L0 122.6Z" fill="#3a70e2" stroke="#3a70e2"></path><path d="M900 638.9L759.4 526.3L762.4 636.9Z" fill="#3a70e2" stroke="#3a70e2"></path><path d="M778.4 392.7L900 377.7L775.4 250.1Z" fill="#3477e3" stroke="#3477e3"></path><path d="M775.4 250.1L900 127.6L756.4 117.6Z" fill="#61a5d8" stroke="#61a5d8"></path><path d="M900 505.3L900 377.7L778.4 392.7Z" fill="#358ae2" stroke="#358ae2"></path><path d="M775.4 776.4L900 638.9L762.4 636.9Z" fill="#56a0da" stroke="#56a0da"></path><path d="M900 377.7L900 246.1L775.4 250.1Z" fill="#4395df" stroke="#4395df"></path><path d="M756.4 117.6L764.4 0L639.9 0Z" fill="#61a5d8" stroke="#61a5d8"></path><path d="M900 0L764.4 0L756.4 117.6Z" fill="#3b90e1" stroke="#3b90e1"></path><path d="M631.9 900L776.4 900L775.4 776.4Z" fill="#3284e3" stroke="#3284e3"></path><path d="M775.4 776.4L900 785.4L900 638.9Z" fill="#56a0da" stroke="#56a0da"></path><path d="M900 246.1L900 127.6L775.4 250.1Z" fill="#4395df" stroke="#4395df"></path><path d="M776.4 900L900 785.4L775.4 776.4Z" fill="#61a5d8" stroke="#61a5d8"></path><path d="M776.4 900L900 900L900 785.4Z" fill="#3284e3" stroke="#3284e3"></path><path d="M900 127.6L900 0L756.4 117.6Z" fill="#56a0da" stroke="#56a0da"></path></g></svg>