<svg id="visual" viewBox="0 0 900 900" width="900" height="900" xmlns="http://www.w3.org/2000/svg" xmlns:xlink="http://www.w3.org/1999/xlink" version="1.1"><g stroke-width="1" stroke-linejoin="bevel"><path d="M510.3 507.3L381.7 510.3L396.7 628.9Z" fill="#4169e1" stroke="#4169e1"></path><path d="M396.7 628.9L523.3 648.9L510.3 507.3Z" fill="#3a70e2" stroke="#3a70e2"></path><path d="M381.7 510.3L267.1 516.3L396.7 628.9Z" fill="#4169e1" stroke="#4169e1"></path><path d="M523.3 648.9L641.9 525.3L510.3 507.3Z" fill="#3477e3" stroke="#3477e3"></path><path d="M514.3 373.7L374.7 376.7L510.3 507.3Z" fill="#61a5d8" stroke="#61a5d8"></path><path d="M510.3 507.3L374.7 376.7L381.7 510.3Z" fill="#3477e3" stroke="#3477e3"></path><path d="M381.7 510.3L260.1 399.7L267.1 516.3Z" fill="#4c9bdd" stroke="#4c9bdd"></path><path d="M636.9 372.7L514.3 373.7L510.3 507.3Z" fill="#358ae2" stroke="#358ae2"></path><path d="M396.7 628.9L512.3 756.4L523.3 648.9Z" fill="#4c9bdd" stroke="#4c9bdd"></path><path d="M523.3 648.9L647.9 650.9L641.9 525.3Z" fill="#3284e3" stroke="#3284e3"></path><path d="M375.7 764.4L512.3 756.4L396.7 628.9Z" fill="#3a70e2" stroke="#3a70e2"></path><path d="M267.1 516.3L248.1 639.9L396.7 628.9Z" fill="#4169e1" stroke="#4169e1"></path><path d="M248.1 639.9L375.7 764.4L396.7 628.9Z" fill="#4395df" stroke="#4395df"></path><path d="M512.3 756.4L647.9 650.9L523.3 648.9Z" fill="#3b90e1" stroke="#3b90e1"></path><path d="M374.7 376.7L260.1 399.7L381.7 510.3Z" fill="#4169e1" stroke="#4169e1"></path><path d="M267.1 516.3L128.6 519.3L248.1 639.9Z" fill="#3477e3" stroke="#3477e3"></path><path d="M778.4 391.7L636.9 372.7L641.9 525.3Z" fill="#3a70e2" stroke="#3a70e2"></path><path d="M641.9 525.3L636.9 372.7L510.3 507.3Z" fill="#61a5d8" stroke="#61a5d8"></path><path d="M248.1 639.9L261.1 776.4L375.7 764.4Z" fill="#3a70e2" stroke="#3a70e2"></path><path d="M520.3 900L652.9 774.4L512.3 756.4Z" fill="#56a0da" stroke="#56a0da"></path><path d="M385.7 900L512.3 756.4L375.7 764.4Z" fill="#56a0da" stroke="#56a0da"></path><path d="M512.3 756.4L652.9 774.4L647.9 650.9Z" fill="#4c9bdd" stroke="#4c9bdd"></path><path d="M647.9 650.9L771.4 640.9L641.9 525.3Z" fill="#3477e3" stroke="#3477e3"></path><path d="M514.3 373.7L387.7 271.1L374.7 376.7Z" fill="#327ee3" stroke="#327ee3"></path><path d="M374.7 376.7L242.1 259.1L260.1 399.7Z" fill="#3b90e1" stroke="#3b90e1"></path><path d="M506.3 269.1L387.7 271.1L514.3 373.7Z" fill="#358ae2" stroke="#358ae2"></path><path d="M637.9 262.1L506.3 269.1L514.3 373.7Z" fill="#4169e1" stroke="#4169e1"></path><path d="M138.6 390.7L128.6 519.3L260.1 399.7Z" fill="#3b90e1" stroke="#3b90e1"></path><path d="M260.1 399.7L128.6 519.3L267.1 516.3Z" fill="#3284e3" stroke="#3284e3"></path><path d="M248.1 639.9L133.6 760.4L261.1 776.4Z" fill="#358ae2" stroke="#358ae2"></path><path d="M778.4 767.4L771.4 640.9L647.9 650.9Z" fill="#3284e3" stroke="#3284e3"></path><path d="M771.4 640.9L780.4 526.3L641.9 525.3Z" fill="#3b90e1" stroke="#3b90e1"></path><path d="M128.6 519.3L118.6 651.9L248.1 639.9Z" fill="#3284e3" stroke="#3284e3"></path><path d="M268.1 900L375.7 764.4L261.1 776.4Z" fill="#3477e3" stroke="#3477e3"></path><path d="M268.1 900L385.7 900L375.7 764.4Z" fill="#327ee3" stroke="#327ee3"></path><path d="M385.7 900L520.3 900L512.3 756.4Z" fill="#4169e1" stroke="#4169e1"></path><path d="M242.1 259.1L138.6 390.7L260.1 399.7Z" fill="#358ae2" stroke="#358ae2"></path><path d="M636.9 372.7L637.9 262.1L514.3 373.7Z" fill="#3b90e1" stroke="#3b90e1"></path><path d="M245.1 140.6L242.1 259.1L387.7 271.1Z" fill="#3477e3" stroke="#3477e3"></path><path d="M772.4 266.1L637.9 262.1L636.9 372.7Z" fill="#4395df" stroke="#4395df"></path><path d="M521.3 142.6L387.7 271.1L506.3 269.1Z" fill="#56a0da" stroke="#56a0da"></path><path d="M387.7 271.1L242.1 259.1L374.7 376.7Z" fill="#4169e1" stroke="#4169e1"></path><path d="M118.6 651.9L133.6 760.4L248.1 639.9Z" fill="#4c9bdd" stroke="#4c9bdd"></path><path d="M780.4 526.3L778.4 391.7L641.9 525.3Z" fill="#327ee3" stroke="#327ee3"></path><path d="M136.6 900L268.1 900L261.1 776.4Z" fill="#3a70e2" stroke="#3a70e2"></path><path d="M652.9 774.4L778.4 767.4L647.9 650.9Z" fill="#3477e3" stroke="#3477e3"></path><path d="M900 655.9L900 514.3L780.4 526.3Z" fill="#327ee3" stroke="#327ee3"></path><path d="M757.4 900L778.4 767.4L652.9 774.4Z" fill="#61a5d8" stroke="#61a5d8"></path><path d="M520.3 900L646.9 900L652.9 774.4Z" fill="#3b90e1" stroke="#3b90e1"></path><path d="M642.9 132.6L521.3 142.6L637.9 262.1Z" fill="#3284e3" stroke="#3284e3"></path><path d="M637.9 262.1L521.3 142.6L506.3 269.1Z" fill="#358ae2" stroke="#358ae2"></path><path d="M778.4 391.7L772.4 266.1L636.9 372.7Z" fill="#61a5d8" stroke="#61a5d8"></path><path d="M0 375.7L0 500.3L138.6 390.7Z" fill="#3477e3" stroke="#3477e3"></path><path d="M138.6 390.7L0 500.3L128.6 519.3Z" fill="#3b90e1" stroke="#3b90e1"></path><path d="M128.6 519.3L0 642.9L118.6 651.9Z" fill="#3a70e2" stroke="#3a70e2"></path><path d="M118.6 651.9L0 768.4L133.6 760.4Z" fill="#4c9bdd" stroke="#4c9bdd"></path><path d="M521.3 142.6L387.7 113.6L387.7 271.1Z" fill="#4c9bdd" stroke="#4c9bdd"></path><path d="M242.1 259.1L119.6 249.1L138.6 390.7Z" fill="#327ee3" stroke="#327ee3"></path><path d="M245.1 140.6L119.6 249.1L242.1 259.1Z" fill="#3a70e2" stroke="#3a70e2"></path><path d="M0 500.3L0 642.9L128.6 519.3Z" fill="#3b90e1" stroke="#3b90e1"></path><path d="M133.6 760.4L136.6 900L261.1 776.4Z" fill="#3a70e2" stroke="#3a70e2"></path><path d="M780.4 526.3L900 514.3L778.4 391.7Z" fill="#3284e3" stroke="#3284e3"></path><path d="M778.4 391.7L900 376.7L772.4 266.1Z" fill="#3477e3" stroke="#3477e3"></path><path d="M900 655.9L780.4 526.3L771.4 640.9Z" fill="#3477e3" stroke="#3477e3"></path><path d="M646.9 900L757.4 900L652.9 774.4Z" fill="#3284e3" stroke="#3284e3"></path><path d="M778.4 767.4L900 655.9L771.4 640.9Z" fill="#4395df" stroke="#4395df"></path><path d="M0 768.4L136.6 900L133.6 760.4Z" fill="#3b90e1" stroke="#3b90e1"></path><path d="M900 782.4L900 655.9L778.4 767.4Z" fill="#3a70e2" stroke="#3a70e2"></path><path d="M387.7 113.6L245.1 140.6L387.7 271.1Z" fill="#3477e3" stroke="#3477e3"></path><path d="M772.4 266.1L642.9 132.6L637.9 262.1Z" fill="#4395df" stroke="#4395df"></path><path d="M510.3 0L395.7 0L387.7 113.6Z" fill="#4395df" stroke="#4395df"></path><path d="M119.6 249.1L0 375.7L138.6 390.7Z" fill="#4169e1" stroke="#4169e1"></path><path d="M900 514.3L900 376.7L778.4 391.7Z" fill="#3477e3" stroke="#3477e3"></path><path d="M772.4 266.1L778.4 138.6L642.9 132.6Z" fill="#61a5d8" stroke="#61a5d8"></path><path d="M0 642.9L0 768.4L118.6 651.9Z" fill="#3a70e2" stroke="#3a70e2"></path><path d="M900 900L900 782.4L778.4 767.4Z" fill="#4c9bdd" stroke="#4c9bdd"></path><path d="M900 260.1L778.4 138.6L772.4 266.1Z" fill="#327ee3" stroke="#327ee3"></path><path d="M510.3 0L387.7 113.6L521.3 142.6Z" fill="#3284e3" stroke="#3284e3"></path><path d="M261.1 0L132.6 118.6L245.1 140.6Z" fill="#3b90e1" stroke="#3b90e1"></path><path d="M245.1 140.6L132.6 118.6L119.6 249.1Z" fill="#4395df" stroke="#4395df"></path><path d="M119.6 249.1L0 250.1L0 375.7Z" fill="#56a0da" stroke="#56a0da"></path><path d="M900 376.7L900 260.1L772.4 266.1Z" fill="#4169e1" stroke="#4169e1"></path><path d="M0 122.6L0 250.1L119.6 249.1Z" fill="#3477e3" stroke="#3477e3"></path><path d="M0 768.4L0 900L136.6 900Z" fill="#4169e1" stroke="#4169e1"></path><path d="M387.7 113.6L261.1 0L245.1 140.6Z" fill="#327ee3" stroke="#327ee3"></path><path d="M510.3 0L521.3 142.6L642.9 132.6Z" fill="#4c9bdd" stroke="#4c9bdd"></path><path d="M757.4 900L900 900L778.4 767.4Z" fill="#56a0da" stroke="#56a0da"></path><path d="M643.9 0L510.3 0L642.9 132.6Z" fill="#3477e3" stroke="#3477e3"></path><path d="M395.7 0L261.1 0L387.7 113.6Z" fill="#4169e1" stroke="#4169e1"></path><path d="M771.4 0L642.9 132.6L778.4 138.6Z" fill="#61a5d8" stroke="#61a5d8"></path><path d="M771.4 0L643.9 0L642.9 132.6Z" fill="#61a5d8" stroke="#61a5d8"></path><path d="M132.6 118.6L0 122.6L119.6 249.1Z" fill="#327ee3" stroke="#327ee3"></path><path d="M116.6 0L0 122.6L132.6 118.6Z" fill="#358ae2" stroke="#358ae2"></path><path d="M900 260.1L900 122.6L778.4 138.6Z" fill="#3b90e1" stroke="#3b90e1"></path><path d="M900 122.6L771.4 0L778.4 138.6Z" fill="#4395df" stroke="#4395df"></path><path d="M261.1 0L116.6 0L132.6 118.6Z" fill="#358ae2" stroke="#358ae2"></path><path d="M116.6 0L0 0L0 122.6Z" fill="#3284e3" stroke="#3284e3"></path><path d="M900 122.6L900 0L771.4 0Z" fill="#3b90e1" stroke="#3b90e1"></path></g></svg>