<svg id="visual" viewBox="0 0 900 900" width="900" height="900" xmlns="http://www.w3.org/2000/svg" xmlns:xlink="http://www.w3.org/1999/xlink" version="1.1"><g stroke-width="1" stroke-linejoin="bevel"><path d="M394.7 505.3L500.3 388.7L385.7 384.7Z" fill="#3284e3" stroke="#3284e3"></path><path d="M394.7 505.3L528.3 507.3L500.3 388.7Z" fill="#3284e3" stroke="#3284e3"></path><path d="M385.7 384.7L266.1 503.3L394.7 505.3Z" fill="#4395df" stroke="#4395df"></path><path d="M389.7 247.1L263.1 379.7L385.7 384.7Z" fill="#327ee3" stroke="#327ee3"></path><path d="M385.7 384.7L263.1 379.7L266.1 503.3Z" fill="#56a0da" stroke="#56a0da"></path><path d="M500.3 388.7L389.7 247.1L385.7 384.7Z" fill="#3477e3" stroke="#3477e3"></path><path d="M387.7 641.9L516.3 629.9L394.7 505.3Z" fill="#3284e3" stroke="#3284e3"></path><path d="M394.7 505.3L516.3 629.9L528.3 507.3Z" fill="#56a0da" stroke="#56a0da"></path><path d="M516.3 629.9L631.9 515.3L528.3 507.3Z" fill="#3477e3" stroke="#3477e3"></path><path d="M528.3 507.3L646.9 397.7L500.3 388.7Z" fill="#3b90e1" stroke="#3b90e1"></path><path d="M500.3 388.7L527.3 252.1L389.7 247.1Z" fill="#358ae2" stroke="#358ae2"></path><path d="M264.1 633.9L387.7 641.9L394.7 505.3Z" fill="#358ae2" stroke="#358ae2"></path><path d="M646.9 397.7L527.3 252.1L500.3 388.7Z" fill="#3b90e1" stroke="#3b90e1"></path><path d="M631.9 515.3L646.9 397.7L528.3 507.3Z" fill="#327ee3" stroke="#327ee3"></path><path d="M266.1 503.3L264.1 633.9L394.7 505.3Z" fill="#3284e3" stroke="#3284e3"></path><path d="M136.6 511.3L264.1 633.9L266.1 503.3Z" fill="#3b90e1" stroke="#3b90e1"></path><path d="M389.7 247.1L265.1 246.1L263.1 379.7Z" fill="#4169e1" stroke="#4169e1"></path><path d="M644.9 757.4L637.9 640.9L516.3 629.9Z" fill="#327ee3" stroke="#327ee3"></path><path d="M516.3 629.9L637.9 640.9L631.9 515.3Z" fill="#61a5d8" stroke="#61a5d8"></path><path d="M775.4 511.3L769.4 370.7L646.9 397.7Z" fill="#56a0da" stroke="#56a0da"></path><path d="M646.9 397.7L649.9 243.1L527.3 252.1Z" fill="#61a5d8" stroke="#61a5d8"></path><path d="M527.3 252.1L511.3 131.6L389.7 247.1Z" fill="#61a5d8" stroke="#61a5d8"></path><path d="M389.7 247.1L271.1 138.6L265.1 246.1Z" fill="#4169e1" stroke="#4169e1"></path><path d="M125.6 388.7L266.1 503.3L263.1 379.7Z" fill="#358ae2" stroke="#358ae2"></path><path d="M125.6 388.7L136.6 511.3L266.1 503.3Z" fill="#3284e3" stroke="#3284e3"></path><path d="M638.9 118.6L511.3 131.6L527.3 252.1Z" fill="#3284e3" stroke="#3284e3"></path><path d="M129.6 258.1L125.6 388.7L263.1 379.7Z" fill="#4395df" stroke="#4395df"></path><path d="M264.1 633.9L371.7 761.4L387.7 641.9Z" fill="#3477e3" stroke="#3477e3"></path><path d="M387.7 641.9L519.3 779.4L516.3 629.9Z" fill="#358ae2" stroke="#358ae2"></path><path d="M270.1 774.4L371.7 761.4L264.1 633.9Z" fill="#4c9bdd" stroke="#4c9bdd"></path><path d="M511.3 131.6L389.7 113.6L389.7 247.1Z" fill="#3477e3" stroke="#3477e3"></path><path d="M265.1 246.1L129.6 258.1L263.1 379.7Z" fill="#4395df" stroke="#4395df"></path><path d="M646.9 397.7L769.4 370.7L649.9 243.1Z" fill="#358ae2" stroke="#358ae2"></path><path d="M775.4 511.3L646.9 397.7L631.9 515.3Z" fill="#4395df" stroke="#4395df"></path><path d="M774.4 628.9L775.4 511.3L631.9 515.3Z" fill="#327ee3" stroke="#327ee3"></path><path d="M389.7 113.6L271.1 138.6L389.7 247.1Z" fill="#3284e3" stroke="#3284e3"></path><path d="M371.7 761.4L519.3 779.4L387.7 641.9Z" fill="#3284e3" stroke="#3284e3"></path><path d="M637.9 640.9L774.4 628.9L631.9 515.3Z" fill="#3284e3" stroke="#3284e3"></path><path d="M0 517.3L142.6 631.9L136.6 511.3Z" fill="#4169e1" stroke="#4169e1"></path><path d="M136.6 511.3L142.6 631.9L264.1 633.9Z" fill="#56a0da" stroke="#56a0da"></path><path d="M271.1 138.6L129.6 258.1L265.1 246.1Z" fill="#3477e3" stroke="#3477e3"></path><path d="M142.6 631.9L270.1 774.4L264.1 633.9Z" fill="#56a0da" stroke="#56a0da"></path><path d="M373.7 900L505.3 900L519.3 779.4Z" fill="#56a0da" stroke="#56a0da"></path><path d="M519.3 779.4L644.9 757.4L516.3 629.9Z" fill="#3477e3" stroke="#3477e3"></path><path d="M649.9 243.1L638.9 118.6L527.3 252.1Z" fill="#4169e1" stroke="#4169e1"></path><path d="M527.3 0L373.7 0L389.7 113.6Z" fill="#3477e3" stroke="#3477e3"></path><path d="M762.4 131.6L638.9 118.6L649.9 243.1Z" fill="#358ae2" stroke="#358ae2"></path><path d="M900 375.7L779.4 270.1L769.4 370.7Z" fill="#327ee3" stroke="#327ee3"></path><path d="M769.4 370.7L779.4 270.1L649.9 243.1Z" fill="#3284e3" stroke="#3284e3"></path><path d="M644.9 757.4L774.4 628.9L637.9 640.9Z" fill="#327ee3" stroke="#327ee3"></path><path d="M775.4 511.3L900 375.7L769.4 370.7Z" fill="#3a70e2" stroke="#3a70e2"></path><path d="M0 263.1L0 393.7L125.6 388.7Z" fill="#4395df" stroke="#4395df"></path><path d="M125.6 388.7L0 517.3L136.6 511.3Z" fill="#4395df" stroke="#4395df"></path><path d="M779.4 270.1L762.4 131.6L649.9 243.1Z" fill="#3b90e1" stroke="#3b90e1"></path><path d="M389.7 113.6L266.1 0L271.1 138.6Z" fill="#3284e3" stroke="#3284e3"></path><path d="M271.1 138.6L123.6 114.6L129.6 258.1Z" fill="#3284e3" stroke="#3284e3"></path><path d="M129.6 258.1L0 263.1L125.6 388.7Z" fill="#3b90e1" stroke="#3b90e1"></path><path d="M527.3 0L389.7 113.6L511.3 131.6Z" fill="#3284e3" stroke="#3284e3"></path><path d="M527.3 0L511.3 131.6L638.9 118.6Z" fill="#4395df" stroke="#4395df"></path><path d="M0 393.7L0 517.3L125.6 388.7Z" fill="#56a0da" stroke="#56a0da"></path><path d="M142.6 631.9L119.6 772.4L270.1 774.4Z" fill="#327ee3" stroke="#327ee3"></path><path d="M646.9 0L527.3 0L638.9 118.6Z" fill="#358ae2" stroke="#358ae2"></path><path d="M266.1 0L123.6 114.6L271.1 138.6Z" fill="#3a70e2" stroke="#3a70e2"></path><path d="M0 645.9L119.6 772.4L142.6 631.9Z" fill="#3a70e2" stroke="#3a70e2"></path><path d="M373.7 900L519.3 779.4L371.7 761.4Z" fill="#327ee3" stroke="#327ee3"></path><path d="M519.3 779.4L642.9 900L644.9 757.4Z" fill="#358ae2" stroke="#358ae2"></path><path d="M900 640.9L900 510.3L774.4 628.9Z" fill="#3477e3" stroke="#3477e3"></path><path d="M373.7 900L371.7 761.4L270.1 774.4Z" fill="#3284e3" stroke="#3284e3"></path><path d="M779.4 270.1L900 137.6L762.4 131.6Z" fill="#3284e3" stroke="#3284e3"></path><path d="M900 510.3L900 375.7L775.4 511.3Z" fill="#56a0da" stroke="#56a0da"></path><path d="M258.1 900L373.7 900L270.1 774.4Z" fill="#327ee3" stroke="#327ee3"></path><path d="M783.4 773.4L774.4 628.9L644.9 757.4Z" fill="#3b90e1" stroke="#3b90e1"></path><path d="M774.4 628.9L900 510.3L775.4 511.3Z" fill="#4169e1" stroke="#4169e1"></path><path d="M373.7 0L266.1 0L389.7 113.6Z" fill="#4395df" stroke="#4395df"></path><path d="M0 128.6L0 263.1L129.6 258.1Z" fill="#56a0da" stroke="#56a0da"></path><path d="M762.4 900L783.4 773.4L644.9 757.4Z" fill="#358ae2" stroke="#358ae2"></path><path d="M0 517.3L0 645.9L142.6 631.9Z" fill="#3b90e1" stroke="#3b90e1"></path><path d="M762.4 131.6L646.9 0L638.9 118.6Z" fill="#4169e1" stroke="#4169e1"></path><path d="M119.6 772.4L258.1 900L270.1 774.4Z" fill="#56a0da" stroke="#56a0da"></path><path d="M900 375.7L900 255.1L779.4 270.1Z" fill="#4395df" stroke="#4395df"></path><path d="M762.4 131.6L769.4 0L646.9 0Z" fill="#4c9bdd" stroke="#4c9bdd"></path><path d="M783.4 773.4L900 640.9L774.4 628.9Z" fill="#3477e3" stroke="#3477e3"></path><path d="M505.3 900L642.9 900L519.3 779.4Z" fill="#3b90e1" stroke="#3b90e1"></path><path d="M123.6 114.6L0 128.6L129.6 258.1Z" fill="#61a5d8" stroke="#61a5d8"></path><path d="M0 0L0 128.6L123.6 114.6Z" fill="#56a0da" stroke="#56a0da"></path><path d="M266.1 0L114.6 0L123.6 114.6Z" fill="#3284e3" stroke="#3284e3"></path><path d="M900 137.6L769.4 0L762.4 131.6Z" fill="#3a70e2" stroke="#3a70e2"></path><path d="M900 255.1L900 137.6L779.4 270.1Z" fill="#4c9bdd" stroke="#4c9bdd"></path><path d="M0 645.9L0 781.4L119.6 772.4Z" fill="#4395df" stroke="#4395df"></path><path d="M119.6 772.4L123.6 900L258.1 900Z" fill="#4395df" stroke="#4395df"></path><path d="M0 781.4L123.6 900L119.6 772.4Z" fill="#3284e3" stroke="#3284e3"></path><path d="M900 900L900 759.4L783.4 773.4Z" fill="#4c9bdd" stroke="#4c9bdd"></path><path d="M783.4 773.4L900 759.4L900 640.9Z" fill="#3477e3" stroke="#3477e3"></path><path d="M642.9 900L762.4 900L644.9 757.4Z" fill="#3477e3" stroke="#3477e3"></path><path d="M114.6 0L0 0L123.6 114.6Z" fill="#61a5d8" stroke="#61a5d8"></path><path d="M0 781.4L0 900L123.6 900Z" fill="#61a5d8" stroke="#61a5d8"></path><path d="M900 137.6L900 0L769.4 0Z" fill="#358ae2" stroke="#358ae2"></path><path d="M762.4 900L900 900L783.4 773.4Z" fill="#3a70e2" stroke="#3a70e2"></path></g></svg>